<?xml version="1.0" encoding="UTF-8"?>
<svg width="640" height="640" xmlns="http://www.w3.org/2000/svg" xmlns:svg="http://www.w3.org/2000/svg">
 <title>blue bus - 90</title>
 <metadata id="metadata8">image/svg+xml</metadata>
 <g>
  <title>Layer 1</title>
  <g id="g10">
   <path transform="rotate(-90 323.1371459960938,313.1033630371094) " fill="#F4D03F" fill-rule="evenodd" d="m36.867519,242.820617c-3.70825,14.93497 -4.67807,42.61874 -4.67807,70.34998c0,27.63626 0.96982,55.31875 4.61963,70.20626c2.73999,11.60877 13.4047,17.17374 28.80741,16.74625l453.89953,0c20.53351,0.1875 39.92932,0.23624 48.93927,-1.19125c19.96393,-3.23624 33.9411,-8.98877 37.0199,-18.50251c5.8772,-17.54998 8.60968,-42.42874 8.60968,-67.30749c0,-24.87625 -2.67853,-49.79999 -8.55273,-67.35376c-3.08026,-9.51126 -17.11292,-15.21997 -37.07685,-18.45499c-9.00995,-1.42752 -28.40576,-1.42752 -48.93927,-1.23623l-453.89953,0c-15.40271,-0.38004 -26.00897,5.13873 -28.74896,16.74374" id="path342"/>
   <path transform="rotate(-90 400.0304870605469,179.00482177734372) " fill="#2C3E50" fill-rule="evenodd" d="m435.348419,186.557464l-66.40118,-3.45999c-8.42005,-0.43625 -13.27259,-2.39374 -13.74506,-4.25376l-1.43127,-5.49124c-0.28376,-1.14126 3.80627,-1.94748 9.94256,-1.94748l12.84497,0c13.88752,0 25.305,0.50998 33.53131,1.75126l26.40241,3.99246c5.75629,0.85876 9.84503,2.065 9.79748,3.52374l-0.09497,4.61127c0,0.88125 -5.94745,1.5325 -10.84625,1.27374" id="path344"/>
   <path transform="rotate(-90 399.3511047363281,196.53256225585935) " fill="#2c3e50" fill-rule="evenodd" d="m422.611757,191.308347l4.945,11.70001l-41.66748,-2.1875c-2.945,-0.14251 -5.94256,-0.57125 -8.84753,-1.285c-5.04126,-1.33252 -4.51874,-2.61627 -5.8963,-8.03751c0,-1.04876 7.42126,-1.42749 8.32385,-1.42749c14.36621,0 28.82495,-0.23748 43.14246,1.23749" id="path346"/>
   <path transform="rotate(-90 400.97564697265625,150.74993896484372) " fill="#2c3e50" fill-rule="evenodd" d="m388.061216,155.838682l-4.75622,-11.22497c10.94244,1.61624 22.26123,2.52124 32.86749,5.32623c3.37994,1.09625 2.33124,2.18875 2.28247,5.99502c-0.95001,0.95121 -8.22998,0.95121 -9.46503,0.95121l-20.92871,-1.04749" id="path348"/>
   <path transform="rotate(-90 416.69625854492193,132.7577209472656) " fill="#2c3e50" fill-rule="evenodd" d="m416.80463,123.173342c1.38,0 2.52002,0.57 4.23126,2.3775c2.76001,2.90124 1.38251,4.51877 0.47626,7.89624c-0.99878,3.56753 -0.33374,2.99628 -2.70997,6.51752c-1.47631,2.09375 -3.04632,2.3775 -5.66131,2.3775c-1.33118,0 -2.66126,-1.095 -2.37872,-2.3775l3.66247,-14.41376c0.28498,-1.28375 1.09375,-2.3775 2.38001,-2.3775" id="path350"/>
   <path transform="rotate(-90 406.5222778320313,128.91476440429685) " fill="#2c3e50" fill-rule="evenodd" d="m403.023892,129.504366c1.33246,0.04626 2.71125,0.90253 4.04377,2.3775c0.47625,0.42752 0.76251,0.90375 0.99749,1.3775c1.90247,-2.80374 3.23627,-8.46499 0.66498,-8.60748c-2.2337,-0.23752 -3.23248,0.095 -4.23376,0.33249c-1.27869,0.23874 -1.89997,2.75876 -1.47248,4.51999" id="path352"/>
   <path transform="rotate(-90 406.8493957519531,218.50689697265622) " fill="#ffffff" fill-rule="evenodd" d="m405.374423,216.390661l2.94873,0c1.99505,0 3.66504,0.34249 3.66504,0.75372l0,2.72751c0,0.40875 -1.61884,0.75125 -3.66504,0.75125l-2.94873,0c-2.04499,0 -3.66382,-0.32874 -3.66382,-0.75125l0,-2.72751c0,-0.42374 1.61883,-0.75372 3.66382,-0.75372" id="path354"/>
   <path transform="rotate(-90 323.22238159179693,159.32684326171878) " fill="#2c3e50" fill-rule="evenodd" d="m251.914885,223.762601l0.06244,2.23255c31.09125,0.09744 59.69501,0.18994 64.46002,1.00122l0,-0.09623c23.36878,2.85245 39.7525,9.46497 55.06128,8.03873c10.74249,-1.04501 13.22876,-7.37378 15.04126,-14.26874c5.50379,-20.74002 7.98999,-40.9563 7.98999,-61.41c0,-20.45123 -2.14874,-40.62 -7.92248,-61.31125c-1.88001,-6.84998 -4.29877,-13.17624 -15.10877,-14.2225c-15.30878,-1.47501 -31.62622,5.18374 -55.06128,7.99124l0,-0.04627l-8.72748,1.04502c-0.27002,0.665 -0.47125,1.38125 -0.47125,2.1875l8.46381,-1.09375c2.88495,22.30874 5.03241,43.95126 5.03241,65.54873c0,21.64002 -2.28247,43.23502 -5.10248,65.45002c-4.02875,-1.23627 -24.44122,-1.04627 -63.71747,-1.04627" id="path358"/>
   <path transform="rotate(-90 323.25122070312506,127.40265655517577) " fill="#2c3e50" fill-rule="evenodd" d="m287.46826,76.268308c2.51624,21.69 3.94623,43.61875 2.94501,65.45124c-0.28504,12.89129 -1.80628,26.11502 -3.23248,38.95626c-0.47632,4.18625 -1.04755,8.42127 -1.57007,12.56003c15.22003,1.99747 30.15753,6.46872 45.42755,7.99121c6.94122,0.42877 15.31494,0.52252 19.31244,-6.13623c2.565,-4.51877 3.80499,-11.36874 4.89874,-16.41125c8.13257,-36.29373 7.56128,-76.24875 -2.28369,-112.11249c-1.33252,-4.75751 -2.80621,-9.03876 -7.46881,-11.36874c-8.51746,-3.61499 -21.16742,-0.90378 -29.91876,0.80624c-9.65497,2.19122 -19.87995,4.37872 -29.77991,5.52124c-0.18756,0.95001 0.33496,3.23248 0.42993,4.32623c0.42884,3.37751 0.85761,6.9925 1.24005,10.41626" id="path360"/>
   <path transform="rotate(-90 384.82785034179693,50.70476150512693) " fill="#ffffff" fill-rule="evenodd" d="m370.046963,56.103822c-2,11.27124 5.89753,18.07376 18.1687,7.42001c3.94635,-3.47253 11.79505,-13.13 11.7013,-30.96628c-9.03876,2.42502 -28.25372,14.22129 -29.87,23.54627" id="path364"/>
   <path transform="rotate(-90 323.25314331054705,567.6037597656251) " fill="#8d8f93" fill-rule="evenodd" d="m330.986278,510.759961c0,-3.04626 -0.71377,-5.41998 -1.45126,-5.41998l-6.98749,0c-0.81375,0 -4.13125,3.42374 -4.18252,6.27875c-1.67621,23.06875 -2.845,39.47873 -2.845,56.03125c0,16.36249 1.13003,32.91751 2.83374,55.98624c0.05252,2.8525 3.38003,6.23129 4.19378,6.23129l6.98749,0c0.73749,0 1.43747,-2.37879 1.43747,-5.37503c-1.21747,-18.97873 -2.23746,-37.76749 -2.23746,-56.88748c0,-19.12504 0.49625,-37.86503 2.25125,-56.84504" id="path368"/>
   <path transform="rotate(-90 323.2518920898439,567.6152954101564) " fill="#2c3e50" fill-rule="evenodd" d="m322.667788,505.827793c-1.85501,0.61749 -3.56751,4.04126 -3.80374,5.85c-1.04752,15.88626 -2.75876,32.20252 -2.75876,48.23249c-0.61875,21.16626 1.32999,42.62002 2.71127,63.69003c0.33121,1.75998 1.99622,5.18625 3.85123,5.80249l6.89752,0c1.71375,-3.47125 0.66748,-10.03626 0.38251,-13.74625c-0.95377,-18.21625 -2.09626,-36.91003 -1.61878,-55.17624c0,-16.6 0.85624,-33.20001 2.1875,-49.70755c-0.04876,-1.6662 -0.18997,-3.42245 -0.95123,-4.94497l-6.89752,0" id="path370"/>
   <path transform="rotate(-90 323.09542846679705,589.8421630859376) " fill="#2c3e50" fill-rule="evenodd" d="m311.464421,519.601104c2.2825,-11.60501 11.22503,-17.22003 24.06878,-16.74374l1.80747,0l1.23751,17.79126l-22.64376,-1.14252c-3.61249,16.0275 -5.09,43.04748 -5.09,70.25497c0,26.73001 1.2825,53.70252 5.04251,70.39627l22.64127,-1.09375l-1.23627,17.79127l-1.75873,0c-12.84375,0.47622 -21.78628,-5.13752 -24.06878,-16.74628c-3.04374,-14.83875 -3.80375,-42.52124 -3.80375,-70.20624c0,-23.06879 -0.76376,-47.85001 3.80375,-70.30124" id="path372"/>
   <path transform="rotate(-90 323.25195312500006,43.84313583374021) " fill="#2c3e50" fill-rule="evenodd" d="m329.055692,88.080597l0,-0.14499l0.32996,0l-0.32996,0.14499zm-0.04999,-88.47498l0.37995,0.09626l-0.37995,0l0,-0.09626zm-21.69006,-35.38876c3.23755,-0.57251 7.51758,0.76248 12.55756,5.13873c3.80499,3.52002 11.60626,12.93625 11.69995,30.34629l0.47876,0c3.99377,12.27252 5.94256,26.2575 5.70752,42.09625l-0.04871,0l0.04871,0.28375c-0.04871,1.23749 -0.04871,2.47372 -0.09625,3.75873l0.19006,0c0.19116,15.84128 -1.71008,29.87253 -5.75501,42.095l-0.52508,0c-0.09369,17.45752 -7.84869,26.82999 -11.69995,30.3475c-5.03998,4.37751 -9.32001,5.75626 -12.51251,5.13877l-5.80127,6.80001c2.09375,-0.18753 3.9013,-0.42877 5.375,-0.66503c16.64746,-3.23624 28.2575,-8.94126 30.82501,-18.45374c4.94623,-17.59875 7.23004,-42.43002 7.23004,-67.35623c0,-0.66376 0,-1.28375 0,-1.94876l-0.05005,0c-0.09247,-24.2125 -2.37622,-48.13748 -7.17999,-65.21503c-2.56751,-9.50998 -14.17755,-15.21997 -30.82501,-18.45499c-1.52002,-0.28375 -3.32874,-0.47497 -5.41999,-0.66372l5.80121,6.75247" id="path374"/>
   <path transform="rotate(-90 246.37873840332034,178.9560241699219) " fill="#2c3e50" fill-rule="evenodd" d="m281.697863,171.404195l-66.40253,3.46249c-8.42126,0.42999 -13.27374,2.39001 -13.74878,4.25125l-1.42615,5.48999c-0.28503,1.14377 3.80378,1.94751 9.94379,1.94751l12.84125,0c13.88745,0 25.30371,-0.51126 33.53503,-1.7525l26.39746,-3.99124c5.75623,-0.85626 9.84748,-2.065 9.79871,-3.52375l-0.09625,-4.61001c0,-0.88251 -5.94367,-1.53375 -10.84247,-1.27374" id="path376"/>
   <path transform="rotate(-90 247.05718994140628,196.5325622558594) " fill="#2c3e50" fill-rule="evenodd" d="m270.317842,201.759762l4.945,-11.70248l-41.66748,2.1875c-2.945,0.14123 -5.94256,0.57123 -8.84753,1.28375c-5.04126,1.33374 -4.51874,2.61749 -5.8963,8.03876c0,1.0487 7.42126,1.42624 8.32385,1.42624c14.36621,0 28.82495,0.23874 43.14246,-1.23377" id="path378"/>
   <path transform="rotate(-90 245.43435668945315,150.74993896484378) " fill="#2c3e50" fill-rule="evenodd" d="m232.519941,145.658707l-4.75622,11.22748c10.94244,-1.6175 22.26123,-2.52249 32.86749,-5.32874c3.37994,-1.09125 2.33124,-2.18875 2.28247,-5.99252c-0.95001,-0.95123 -8.22998,-0.95123 -9.46503,-0.95123l-20.92871,1.04501" id="path380"/>
   <path transform="rotate(-90 229.7618560791016,132.71157836914062) " fill="#2c3e50" fill-rule="evenodd" d="m229.87152,142.296581c1.37878,0 2.52252,-0.57126 4.23255,-2.38125c2.75744,-2.90003 1.37872,-4.51874 0.47625,-7.89502c-1.00006,-3.56623 -0.33374,-2.99747 -2.71124,-6.51496c-1.47376,-2.09378 -3.04627,-2.37878 -5.66126,-2.37878c-1.33374,0 -2.66381,1.09375 -2.38006,2.37878l3.66382,14.40998c0.28497,1.2875 1.09625,2.38125 2.37994,2.38125" id="path382"/>
   <path transform="rotate(-90 239.93339538574222,128.86587524414065) " fill="#2c3e50" fill-rule="evenodd" d="m236.434875,128.2794c1.33002,-0.04876 2.71375,-0.90628 4.04126,-2.38125c0.47876,-0.42752 0.76251,-0.90247 1.00122,-1.3775c1.90253,2.80624 3.23627,8.46502 0.66626,8.60748c-2.23755,0.24005 -3.2362,-0.09372 -4.23627,-0.33121c-1.28125,-0.23877 -1.90246,-2.75876 -1.47247,-4.51752" id="path384"/>
   <path transform="rotate(-90 239.6075134277344,218.46002197265628) " fill="#ffffff" fill-rule="evenodd" d="m238.130646,220.575658l2.95129,0c1.99878,0 3.6637,-0.34128 3.6637,-0.75251l0,-2.73001c0,-0.40497 -1.61871,-0.74875 -3.6637,-0.74875l-2.95129,0c-2.04376,0 -3.66126,0.32999 -3.66126,0.74875l0,2.73001c0,0.42374 1.6175,0.75251 3.66126,0.75251" id="path386"/>
   <path transform="rotate(-90 261.58190917968756,50.70477294921873) " id="path390" d="m246.801022,45.305988c-2,-11.27253 5.89753,-18.07499 18.1687,-7.41877c3.94635,3.47251 11.79505,13.12748 11.7013,30.965c-9.03876,-2.42499 -28.25372,-14.22372 -29.87,-23.54623" fill-rule="evenodd" fill="#ffffff"/>
   <path transform="rotate(-90 323.39559936523443,34.53936386108396) " id="path404" d="m319.534368,75.065607c1.635,-0.47372 2.45379,-1.04748 3.31127,-2.56997c0.57245,-0.95001 1.49122,-2.57001 1.57373,-5.32749c1.83881,-7.99002 2.83747,-20.31002 2.83747,-32.67752c0,-12.36752 -1.305,-24.68628 -2.81745,-32.63c-0.08124,-2.71124 -1.00128,-4.33002 -1.57501,-5.32749c-0.85748,-1.52127 -1.67505,-2.09252 -3.31122,-2.52002c3.10742,13.31873 4.06745,26.63501 4.39496,39.90748c0.34876,13.88879 -2.16376,28.82379 -4.41376,41.14502" fill-rule="evenodd" fill="#2c3e50"/>
   <path transform="rotate(-90 323.39379882812506,32.54754638671873) " id="path406" d="m325.080655,32.548158c0,3.11749 -0.75622,5.66 -1.68744,5.66c-0.93127,0 -1.68628,-2.54251 -1.68628,-5.66c0,-3.11624 0.75501,-5.66122 1.68628,-5.66122c0.93122,0 1.68744,2.54498 1.68744,5.66122" fill-rule="evenodd" fill="#ffffff"/>
   <path transform="rotate(-90 392.5850219726563,363.940673828125) " id="path866" d="m280.260036,363.701322l224.65,0.49872l0,-0.01874l-224.65,-0.5" fill-rule="nonzero" fill="#211d1d"/>
   <path transform="rotate(-90 393.79937744140625,246.04501342773435) " id="path868" d="m388.228731,245.090026c3.59253,0 6.375,0.13248 8.25873,0.43997c1.88501,0.30753 2.86633,0.79505 2.86383,1.48877l0.01874,0c-0.00757,-1.42749 -3.95502,-1.945 -11.1413,-1.94751l0,0.01877" fill-rule="nonzero" fill="#211d1d"/>
   <path transform="rotate(-90 397.03082275390625,240.48361206054685) " id="path870" d="m397.021335,242.740939l0.01898,0l0,-4.51465l-0.01898,0l0,4.51465z" fill-rule="nonzero" fill="#211d1d"/>
   <path transform="rotate(-90 400.7687683105469,242.54809570312497) " id="path872" d="m402.823764,241.067477c0,0.99624 -0.84882,2.28 -4.12873,2.9425l0.00373,0.01874c3.28375,-0.66251 4.14374,-1.95126 4.14374,-2.96124l-0.01874,0" fill-rule="nonzero" fill="#211d1d"/>
   <path transform="rotate(-90 403.6887512207031,251.6124572753906) " id="path874" d="m410.679379,250.154356l-13.98498,2.89749l0.00372,0.01874l13.98499,-2.89749" fill-rule="nonzero" fill="#211d1d"/>
   <path transform="rotate(-90 405.90438842773443,269.1156005859375) " id="path876" d="m416.413179,268.339352c-5.8913,1.21 -7.85877,1.53376 -19.77753,1.53376c-0.40375,0 -0.8175,0 -1.24377,-0.00126l0,0.01999c0.42627,0 0.84002,0 1.24377,0c11.91876,0 13.88995,-0.32373 19.78125,-1.53375l-0.00372,-0.01874" fill-rule="nonzero" fill="#211d1d"/>
   <path transform="rotate(-90 406.47875976562506,378.56561279296875) " id="path878" d="m505.416263,378.747493l-197.87503,-0.38375l0,0.01873l197.87503,0.38501" fill-rule="nonzero" fill="#211d1d"/>
   <path transform="rotate(-90 399.97750854492193,352.0000305175781) " id="path880" d="m399.705629,341.820652l0.52502,20.35876l0.01874,0l-0.52502,-20.35876" fill-rule="nonzero" fill="#211d1d"/>
   <path transform="rotate(-90 372.4593811035157,66.73309326171874) " id="path882" d="m395.266874,61.086852c-16.49872,2.85498 -31.73498,6.565 -45.61871,11.27374l0.00622,0.01874c13.88251,-4.70999 29.1175,-8.41873 45.61622,-11.27249l-0.00373,-0.01999" fill-rule="nonzero" fill="#211d1d"/>
   <path transform="rotate(-90 393.2662658691407,85.55316162109374) " id="path884" d="m413.456328,83.501285c-12.44006,2.33496 -26.98755,4.08496 -35.42883,4.08496c-2.04993,0 -3.73999,-0.10373 -4.95123,-0.32624l-0.00373,0.01877c1.21375,0.22248 2.90503,0.32624 4.95496,0.32624c8.44379,0 22.99127,-1.75 35.43255,-4.08503l-0.00372,-0.0187" fill-rule="nonzero" fill="#211d1d"/>
   <path transform="rotate(-90 398.8830261230469,230.5438537597656) " id="path888" d="m398.87378,241.768987l0.01849,0l0,-22.45026l-0.01849,0l0,22.45026z" fill-rule="nonzero" fill="#211d1d"/>
   <path transform="rotate(-90 364.8966979980469,235.34436035156247) " id="path890" d="m364.886688,280.555822l0.02002,0l0,-90.42292l-0.02002,0l0,90.42292z" fill-rule="nonzero" fill="#211d1d"/>
   <path transform="rotate(-90 389.8906555175782,353.8543701171875) " id="path894" d="m266.670656,353.864354l246.44003,0l0,-0.01999l-246.44003,0l0,0.01999z" fill-rule="nonzero" fill="#211d1d"/>
   <path transform="rotate(-90 387.6098937988282,353.8543701171875) " id="path896" d="m264.389894,353.863866l246.44003,0l0,-0.01899l-246.44003,0l0,0.01899z" fill-rule="nonzero" fill="#211d1d"/>
   <path transform="rotate(-90 404.3525085449219,121.06878662109371) " id="path898" d="m404.984405,114.979398l-1.28253,12.17752l0.0188,0.00123l1.28247,-12.17749" fill-rule="nonzero" fill="#211d1d"/>
   <path transform="rotate(-90 253.82315063476565,363.940673828125) " id="path900" d="m141.498165,364.198183l224.65,-0.49625l0,-0.01877l-224.65,0.49625" fill-rule="nonzero" fill="#211d1d"/>
   <path transform="rotate(-90 252.61128234863284,246.0450134277344) " id="path902" d="m247.040636,247.018141c7.18628,-0.00253 11.13373,-0.52252 11.14129,-1.94626l-0.01873,0c0.0025,0.69251 -0.97882,1.17874 -2.86383,1.48624c-1.88373,0.30878 -4.6662,0.44125 -8.25873,0.44125l0,0.01877" fill-rule="nonzero" fill="#211d1d"/>
   <path transform="rotate(-90 249.3788757324219,240.4836120605469) " id="path904" d="m249.369388,242.742886l0.01898,0l0,-4.51855l-0.01898,0l0,4.51855z" fill-rule="nonzero" fill="#211d1d"/>
   <path transform="rotate(-90 245.63940429687503,242.54809570312503) " id="path906" d="m247.71314,244.028111c0,-1.00876 -0.85999,-2.29627 -4.14374,-2.96003l-0.00373,0.01877c3.27991,0.66376 4.12873,1.94626 4.12873,2.94126l0.01874,0" fill-rule="nonzero" fill="#211d1d"/>
   <path transform="rotate(-90 242.72062683105472,251.61245727539065) " id="path908" d="m249.714984,253.05122l-13.98499,-2.89627l-0.00372,0.01877l13.98498,2.89624" fill-rule="nonzero" fill="#211d1d"/>
   <path transform="rotate(-90 240.50563049316415,269.11560058593756) " id="path910" d="m251.018141,269.87309c-5.8725,-1.20498 -7.85125,-1.53375 -19.67248,-1.53375c-0.43756,0 -0.88751,0 -1.35254,0.00128l0,0.01874c0.46503,-0.00128 0.91498,-0.00128 1.35254,-0.00128c11.82245,0 13.7962,0.32877 19.66876,1.53378l0.00372,-0.01877" fill-rule="nonzero" fill="#211d1d"/>
   <path transform="rotate(-90 239.93125915527347,378.56561279296875) " id="path912" d="m338.868762,378.365003l-197.87503,0.38251l0,0.01871l197.87503,-0.38248" fill-rule="nonzero" fill="#211d1d"/>
   <path transform="rotate(-90 246.40753173828128,351.9525146484375) " id="path914" d="m246.156917,362.108123l0.52124,-20.31122l-0.01873,0l-0.52253,20.31122" fill-rule="nonzero" fill="#211d1d"/>
   <path transform="rotate(-90 273.9500122070313,66.73309326171874) " id="path916" d="m296.761226,72.359951c-16.49871,-2.85372 -31.73376,-6.56375 -45.61621,-11.27249l-0.00622,0.01749c13.88373,4.70877 29.11993,8.41998 45.61871,11.27377l0.00372,-0.01877" fill-rule="nonzero" fill="#211d1d"/>
   <path transform="rotate(-90 253.14312744140628,85.55316162109374) " id="path918" d="m273.336909,87.585664c-12.44128,-2.33377 -26.98877,-4.08374 -35.43255,-4.08374c-2.05121,0 -3.74121,0.10251 -4.95496,0.32623l0.00373,0.01877c1.21124,-0.2225 2.90124,-0.32629 4.95123,-0.32629c8.44128,0 22.98877,1.75006 35.42883,4.08377l0.00372,-0.01874" fill-rule="nonzero" fill="#211d1d"/>
   <path transform="rotate(-90 247.57452392578128,230.4924011230469) " id="path922" d="m247.565035,241.717287l0.01898,0l0,-22.44977l-0.01898,0l0,22.44977z" fill-rule="nonzero" fill="#211d1d"/>
   <path transform="rotate(-90 256.5176086425782,353.8543701171875) " id="path926" d="m133.297609,353.863621l246.44003,0l0,-0.0185l-246.44003,0l0,0.0185z" fill-rule="nonzero" fill="#211d1d"/>
   <path transform="rotate(-90 258.79940795898443,353.8543701171875) " id="path928" d="m135.579393,353.864367l246.44003,0l0,-0.01999l-246.44003,0l0,0.01999z" fill-rule="nonzero" fill="#211d1d"/>
   <path transform="rotate(-90 242.10443115234375,121.02001953124999) " id="path930" d="m242.756291,127.106243l-1.28504,-12.17498l-0.01874,0.00122l1.28498,12.1763" fill-rule="nonzero" fill="#211d1d"/>
   <path transform="rotate(-90 343.4694213867188,36.67573547363279) " id="path952" d="m340.606961,61.268219c3.37128,-13.09375 5.74372,-27.20499 5.74372,-43.88126c0,-1.73874 -0.02625,-3.50622 -0.07874,-5.30371l-0.02002,0.00122c0.05383,1.79627 0.07874,3.56375 0.07874,5.30249c0,16.67502 -2.37122,30.78379 -5.7425,43.87629l0.0188,0.00497" fill-rule="nonzero" fill="#2c3e50"/>
   <path style="vector-effect: non-scaling-stroke;" transform="rotate(-90 303.3199768066407,36.723148345947244) " id="path954" d="m300.440002,12.136297c3.36999,13.09121 5.74127,27.195 5.74127,43.86621c0,1.74252 -0.02624,3.51254 -0.08002,5.3125l0.01996,0c0.05249,-1.79996 0.07874,-3.56998 0.07874,-5.3125c0,-16.67249 -2.37122,-30.77872 -5.74121,-43.87122l-0.01874,0.00501" fill-rule="nonzero" fill="#2c3e50"/>
   <rect id="rect4902" width="248.53607" height="13.03354" x="75.951258" y="-290.665195" transform="rotate(-90 250.27421569824222,394.8146667480469) matrix(1.25,0,0,1.25,0,750) " ry="6.51677" fill="#2c3e50"/>
   <path transform="rotate(-90 250.33056640625003,304.89556884765625) " id="path386-4-4" d="m248.952945,302.459172l0.005,4.88616c0.00372,3.30918 0.22778,6.0644 0.49512,6.06269l1.77447,-0.01126c0.26319,-0.00122 0.48401,-2.6832 0.48066,-6.06891l-0.00501,-4.8862c-0.00372,-3.38367 -0.22052,-6.06027 -0.49268,-6.05854l-1.77447,0.01126c-0.27545,0.0012 -0.48645,2.68113 -0.48309,6.06479" fill-rule="evenodd" fill="#2c3e50"/>
   <path transform="rotate(-90 250.69061279296878,264.8495178222656) " id="path386-4-4-6" d="m249.312961,262.413145l0.00506,4.88617c0.00373,3.30918 0.22779,6.06433 0.49506,6.06262l1.77447,-0.01123c0.26325,-0.00119 0.48407,-2.68316 0.48072,-6.06894l-0.00507,-4.88614c-0.00372,-3.38366 -0.22046,-6.06027 -0.49261,-6.05853l-1.77454,0.01126c-0.27539,0.00116 -0.48645,2.68112 -0.48309,6.06479" fill-rule="evenodd" fill="#2c3e50"/>
   <path transform="rotate(-90 250.38679504394534,344.041259765625) " id="path386-4-4-4" d="m249.009175,341.685474l0.005,4.72491c0.00378,3.20001 0.22784,5.86426 0.49512,5.86264l1.77447,-0.01126c0.26325,-0.00116 0.48401,-2.5946 0.48065,-5.86868l-0.005,-4.72495c-0.00372,-3.272 -0.22046,-5.86032 -0.49268,-5.85864l-1.77447,0.01126c-0.27539,0.00116 -0.48645,2.59265 -0.48309,5.86472" fill-rule="evenodd" fill="#2c3e50"/>
   <path transform="rotate(-90 250.55503845214847,384.803466796875) " id="path386-4-4-4-0" d="m249.177415,382.447678l0.005,4.72494c0.00373,3.20002 0.22785,5.86426 0.49512,5.86258l1.77448,-0.01123c0.26324,-0.0011 0.484,-2.59463 0.48065,-5.86868l-0.00501,-4.72494c-0.00372,-3.27204 -0.22046,-5.86033 -0.49267,-5.85862l-1.77448,0.01126c-0.27539,0.0011 -0.48645,2.59266 -0.48309,5.86469" fill-rule="evenodd" fill="#2c3e50"/>
   <path transform="rotate(-90 250.55503845214847,424.6905822753906) " id="path386-4-4-4-2" d="m249.177411,422.334793l0.00501,4.72494c0.00375,3.20002 0.22781,5.86426 0.49512,5.86258l1.77444,-0.01123c0.26325,-0.0011 0.48404,-2.59463 0.48068,-5.86868l-0.005,-4.72494c-0.00373,-3.27204 -0.22049,-5.86033 -0.49268,-5.85862l-1.77447,0.01126c-0.27542,0.0011 -0.48645,2.59266 -0.4831,5.86469" fill-rule="evenodd" fill="#2c3e50"/>
   <path transform="rotate(-90 250.55503845214847,464.6905822753906) " id="path386-4-4-4-2-9" d="m249.177411,462.334793l0.00501,4.72494c0.00375,3.20002 0.22781,5.86426 0.49512,5.86258l1.77444,-0.01123c0.26325,-0.0011 0.48404,-2.59463 0.48068,-5.86868l-0.005,-4.72494c-0.00373,-3.27204 -0.22049,-5.86033 -0.49268,-5.85862l-1.77447,0.01126c-0.27542,0.0011 -0.48645,2.59266 -0.4831,5.86469" fill-rule="evenodd" fill="#2c3e50"/>
   <rect id="rect4902-7" width="249.43494" height="13.03354" x="193.101839" y="-290.215759" ry="6.51677" transform="rotate(-90 397.27413940429693,395.3762512207031) matrix(1.25,0,0,1.25,0,750) " fill="#2c3e50"/>
   <path transform="rotate(-90 397.33056640625006,304.89556884765625) " id="path386-4-4-43" d="m395.952945,302.459202l0.005,4.88614c0.00372,3.3092 0.22778,6.06436 0.49512,6.06265l1.77447,-0.01126c0.26319,-0.00119 0.48401,-2.68317 0.48066,-6.06891l-0.00501,-4.88614c-0.00372,-3.38373 -0.22052,-6.0603 -0.49268,-6.05856l-1.77447,0.01123c-0.27545,0.00122 -0.48645,2.68115 -0.48309,6.06485" fill-rule="evenodd" fill="#2c3e50"/>
   <path transform="rotate(-90 397.6905822753907,264.8495178222656) " id="path386-4-4-6-7" d="m396.31293,262.413175l0.00506,4.88614c0.00373,3.30921 0.22779,6.06439 0.49506,6.06265l1.77447,-0.01126c0.26325,-0.00119 0.48407,-2.68313 0.48072,-6.06891l-0.00507,-4.88616c-0.00372,-3.38367 -0.22046,-6.06025 -0.49268,-6.05854l-1.77447,0.01126c-0.27539,0.00122 -0.48645,2.68113 -0.48309,6.06482" fill-rule="evenodd" fill="#2c3e50"/>
   <path transform="rotate(-90 397.38681030273443,344.0412292480469) " id="path386-4-4-4-5" d="m396.00916,341.685429l0.005,4.72494c0.00378,3.20001 0.22784,5.86426 0.49512,5.86261l1.77447,-0.01123c0.26325,-0.00113 0.48407,-2.59463 0.48072,-5.86868l-0.00501,-4.72495c-0.00378,-3.27203 -0.22052,-5.86032 -0.49274,-5.85861l-1.77441,0.0112c-0.27545,0.00116 -0.48651,2.59271 -0.48315,5.86472" fill-rule="evenodd" fill="#2c3e50"/>
   <path transform="rotate(-90 397.55502319335943,384.8034362792969) " id="path386-4-4-4-0-6" d="m396.17737,382.447633l0.005,4.72494c0.00373,3.20002 0.22785,5.86426 0.49512,5.86261l1.77448,-0.01126c0.26324,-0.0011 0.48407,-2.5946 0.48071,-5.86865l-0.00501,-4.72494c-0.00378,-3.27207 -0.22052,-5.86032 -0.49273,-5.85865l-1.77442,0.01126c-0.27545,0.00113 -0.48651,2.59266 -0.48315,5.86469" fill-rule="evenodd" fill="#2c3e50"/>
   <path transform="rotate(-90 397.55502319335943,424.6905822753906) " id="path386-4-4-4-2-8" d="m396.177396,422.334779l0.00501,4.72494c0.00375,3.20002 0.22781,5.86426 0.49512,5.86261l1.77444,-0.01126c0.26325,-0.0011 0.48404,-2.5946 0.48068,-5.86865l-0.005,-4.72494c-0.00373,-3.27207 -0.22049,-5.86032 -0.49268,-5.85865l-1.77447,0.01126c-0.27542,0.00113 -0.48645,2.59266 -0.4831,5.86469" fill-rule="evenodd" fill="#2c3e50"/>
   <path transform="rotate(-90 397.55502319335943,464.6905822753906) " id="path386-4-4-4-2-9-1" d="m396.177396,462.334779l0.00501,4.72494c0.00375,3.20002 0.22781,5.86426 0.49512,5.86261l1.77444,-0.01126c0.26325,-0.0011 0.48404,-2.5946 0.48068,-5.86865l-0.005,-4.72494c-0.00373,-3.27207 -0.22049,-5.86032 -0.49268,-5.85865l-1.77447,0.01126c-0.27542,0.00113 -0.48645,2.59266 -0.4831,5.86469" fill-rule="evenodd" fill="#2c3e50"/>
  </g>
 </g>
</svg>