<?xml version="1.0" standalone="no"?><!DOCTYPE svg PUBLIC "-//W3C//DTD SVG 1.1//EN" "http://www.w3.org/Graphics/SVG/1.1/DTD/svg11.dtd"><svg t="1616380274363" class="icon" viewBox="0 0 1024 1024" version="1.1" xmlns="http://www.w3.org/2000/svg" p-id="1949" xmlns:xlink="http://www.w3.org/1999/xlink" width="200" height="200"><defs><style type="text/css"></style></defs><path d="M317.793103 935.724138a194.206897 52.965517 0 1 0 388.413794 0 194.206897 52.965517 0 1 0-388.413794 0Z" fill="#666666" p-id="1950"></path><path d="M512 741.517241c28.248276 0 52.965517 24.717241 52.965517 52.965518v105.931034c0 28.248276-24.717241 52.965517-52.965517 52.965517s-52.965517-24.717241-52.965517-52.965517v-105.931034c0-28.248276 24.717241-52.965517 52.965517-52.965518z" fill="#333333" p-id="1951"></path><path d="M335.448276 105.931034h353.103448c77.682759 0 141.241379 63.558621 141.241379 141.24138v353.103448c0 77.682759-63.558621 141.241379-141.241379 141.241379H335.448276c-77.682759 0-141.241379-63.558621-141.241379-141.241379V247.172414c0-77.682759 63.558621-141.241379 141.241379-141.24138z" fill="" p-id="1952"></path><path d="M307.2 77.682759h406.068966c77.682759 0 141.241379 63.558621 141.241379 141.241379v406.068965c0 77.682759-63.558621 141.241379-141.241379 141.24138H307.2c-77.682759 0-141.241379-63.558621-141.241379-141.24138V218.924138c0-77.682759 63.558621-141.241379 141.241379-141.241379z" fill="#0EAE5A" p-id="1953"></path><path d="M635.586207 582.62069h-247.172414v24.717241c0 14.124138-10.593103 28.248276-28.248276 28.248276s-24.717241-10.593103-24.717241-28.248276V300.137931C335.448276 271.889655 360.165517 247.172414 388.413793 247.172414h247.172414c28.248276 0 52.965517 24.717241 52.965517 52.965517v307.2c0 14.124138-10.593103 28.248276-28.248276 28.248276s-28.248276-10.593103-28.248276-28.248276l3.531035-24.717241c0 3.531034 0 0 0 0z m-233.048276-38.84138c14.124138 0 28.248276-10.593103 28.248276-24.717241s-14.124138-24.717241-28.248276-24.717241-24.717241 10.593103-24.717241 24.717241 10.593103 24.717241 24.717241 24.717241z m218.924138 0c14.124138 0 28.248276-10.593103 28.248276-24.717241s-14.124138-24.717241-28.248276-24.717241-28.248276 10.593103-28.248276 24.717241 14.124138 24.717241 28.248276 24.717241zM395.475862 310.731034c-10.593103 0-17.655172 7.062069-17.655172 17.655173V423.724138c0 10.593103 7.062069 17.655172 17.655172 17.655172h236.57931c10.593103 0 17.655172-7.062069 17.655173-17.655172V328.386207c0-10.593103-7.062069-17.655172-17.655173-17.655173H395.475862z" fill="#FCFDFF" p-id="1954"></path></svg>